<?xml version="1.0" standalone="no"?>
<!DOCTYPE svg PUBLIC "-//W3C//DTD SVG 20010904//EN"
 "http://www.w3.org/TR/2001/REC-SVG-20010904/DTD/svg10.dtd">
<svg version="1.0" xmlns="http://www.w3.org/2000/svg"
 width="512.000000pt" height="512.000000pt" viewBox="0 0 512.000000 512.000000"
 preserveAspectRatio="xMidYMid meet">
<metadata>
Created by potrace 1.11, written by Peter Selinger 2001-2013
</metadata>
<g transform="translate(0.000000,512.000000) scale(0.100000,-0.100000)"
fill="#000000" stroke="none">
<path d="M2260 4944 c-160 -20 -290 -50 -459 -106 -609 -202 -1112 -642 -1397
-1223 -280 -572 -323 -1224 -118 -1828 246 -727 837 -1298 1580 -1527 434
-134 954 -134 1388 0 629 193 1149 629 1445 1209 177 347 261 698 261 1091 0
393 -84 744 -261 1091 -361 709 -1058 1196 -1849 1294 -151 18 -443 18 -590
-1z m467 -94 c453 -35 846 -182 1213 -453 122 -91 366 -335 457 -457 275 -372
420 -763 454 -1225 39 -547 -120 -1086 -453 -1533 -92 -125 -335 -368 -460
-460 -516 -385 -1161 -536 -1796 -422 -337 61 -674 209 -960 422 -124 92 -368
336 -459 458 -335 453 -493 987 -454 1535 34 461 179 854 454 1225 91 122 335
366 457 457 358 265 764 419 1193 452 151 12 208 12 354 1z"/>
<path d="M2318 4355 c-759 -108 -1367 -671 -1528 -1413 -45 -207 -51 -484 -14
-692 89 -514 409 -979 856 -1245 176 -105 413 -193 623 -231 141 -26 469 -26
610 0 763 139 1343 719 1481 1481 26 141 26 469 0 610 -68 374 -242 710 -507
974 -263 263 -602 440 -969 506 -129 23 -424 29 -552 10z m-199 -822 c32 -31
221 -463 221 -505 -1 -39 -21 -62 -145 -163 -66 -54 -122 -100 -124 -101 -7
-6 93 -164 147 -232 77 -98 235 -255 325 -322 79 -60 215 -146 221 -139 210
259 219 268 264 269 13 0 126 -43 250 -96 229 -97 282 -130 282 -173 0 -11
-23 -118 -50 -238 -47 -203 -52 -220 -82 -247 l-31 -29 -119 7 c-727 41 -1357
506 -1608 1186 -80 218 -135 584 -99 663 17 37 39 45 256 97 239 58 253 59
292 23z"/>
</g>
</svg>
